<svg xmlns="http://www.w3.org/2000/svg"  viewBox="0 0 24 24" width="32px" height="32px"><path d="M 12 1 C 11.083334 1 10.268559 1.3797556 9.7519531 1.9609375 C 9.2353472 2.5421194 9 3.2777779 9 4 C 9 4.7222221 9.2353472 5.4578806 9.7519531 6.0390625 C 10.068447 6.3951184 10.504816 6.6623237 11 6.8261719 L 11 7.1054688 C 10.648795 7.1779342 10.303949 7.2874267 9.9707031 7.4375 L 2.1308594 10.966797 L 2.1289062 10.96875 C 1.2905581 11.348818 0.92431009 12.195958 1.0097656 13 L 1 13 L 1 17.615234 C 1 18.158177 1.3018416 18.667228 1.8027344 18.916016 L 8.2949219 22.130859 C 10.634021 23.288504 13.365979 23.288504 15.705078 22.130859 L 22.193359 18.919922 C 22.699054 18.672098 23 18.15705 23 17.615234 L 23 13 L 22.986328 13 C 23.071983 12.19402 22.706153 11.34521 21.865234 10.966797 L 14.025391 7.4375 C 13.693436 7.2880087 13.349798 7.1799055 13 7.1074219 L 13 6.8261719 C 13.495184 6.6623237 13.931553 6.3951184 14.248047 6.0390625 C 14.764653 5.4578806 15 4.7222221 15 4 C 15 3.2777779 14.764653 2.5421194 14.248047 1.9609375 C 13.731441 1.3797556 12.916666 1 12 1 z M 12 3 C 12.416666 3 12.601893 3.1202444 12.751953 3.2890625 C 12.902014 3.4578806 13 3.7222221 13 4 C 13 4.2777779 12.902014 4.5421194 12.751953 4.7109375 C 12.601893 4.8797556 12.416666 5 12 5 C 11.583334 5 11.398107 4.8797556 11.248047 4.7109375 C 11.097986 4.5421194 11 4.2777779 11 4 C 11 3.7222221 11.097986 3.4578806 11.248047 3.2890625 C 11.398107 3.1202444 11.583334 3 12 3 z M 11 9.1933594 L 11 13 L 13 13 L 13 9.1953125 C 13.067261 9.2201233 13.13667 9.2317917 13.203125 9.2617188 L 21.027344 12.783203 L 14.349609 16.394531 C 12.849518 17.205891 11.148529 17.205891 9.6484375 16.394531 L 2.9707031 12.783203 L 10.792969 9.2617188 C 10.860767 9.2311865 10.931364 9.2185665 11 9.1933594 z M 7.5 12 A 1.5 1 0 0 0 7.5 14 A 1.5 1 0 0 0 7.5 12 z M 3 15.072266 L 8.6972656 18.154297 C 10.769174 19.274937 13.228873 19.274937 15.300781 18.154297 L 15.302734 18.154297 L 21 15.072266 L 21 17.277344 L 14.818359 20.337891 C 13.031458 21.222246 10.968542 21.222246 9.1816406 20.337891 L 3 17.277344 L 3 15.072266 z"/></svg>